<svg xmlns="http://www.w3.org/2000/svg" width="1200" height="340" viewBox="0 0 1200 340" role="img" aria-labelledby="t d">
  <title id="t">music-player · 音乐播放器</title>
  <desc id="d">基于 SpringBoot + MyBatis 的音乐播放器,支持上传、在线播放、收藏与外部 API。左侧标题与技术栈,右侧展示播放卡片与音轨波形。</desc>
  <rect width="1200" height="340" rx="22" fill="#14100e"/>
  <rect x="0" y="0" width="6" height="340" rx="3" fill="#fb7185"/>

  <g transform="translate(56,54)" font-family="-apple-system,BlinkMacSystemFont,'Segoe UI','PingFang SC',sans-serif">
    <text x="0" y="0" font-size="15" letter-spacing="4" fill="#fb7185" font-weight="600">MUSIC · PLAYER</text>
    <text x="0" y="52" font-size="40" font-weight="700" fill="#f0ebe7">音乐播放器</text>
    <text x="0" y="96" font-size="17" fill="#a89b92">SpringBoot + MyBatis 全栈音乐应用</text>
    <text x="0" y="122" font-size="17" fill="#a89b92">上传 · 在线播放 · 收藏 · 对外 API</text>

    <g transform="translate(0,160)" font-size="13.5" font-family="ui-monospace,SFMono-Regular,Menlo,monospace">
      <g><rect width="92" height="30" rx="8" fill="none" stroke="#3a2f28"/><text x="46" y="20" text-anchor="middle" fill="#cdbdb3">SpringBoot</text></g>
      <g transform="translate(104,0)"><rect width="80" height="30" rx="8" fill="none" stroke="#3a2f28"/><text x="40" y="20" text-anchor="middle" fill="#cdbdb3">MyBatis</text></g>
      <g transform="translate(196,0)"><rect width="80" height="30" rx="8" fill="none" stroke="#3a2f28"/><text x="40" y="20" text-anchor="middle" fill="#cdbdb3">MySQL</text></g>
      <g transform="translate(288,0)"><rect width="92" height="30" rx="8" fill="none" stroke="#3a2f28"/><text x="46" y="20" text-anchor="middle" fill="#cdbdb3">Thymeleaf</text></g>
      <g transform="translate(392,0)"><rect width="84" height="30" rx="8" fill="none" stroke="#3a2f28"/><text x="42" y="20" text-anchor="middle" fill="#cdbdb3">Bootstrap</text></g>
      <g transform="translate(488,0)"><rect width="76" height="30" rx="8" fill="none" stroke="#6b4a1a"/><text x="38" y="20" text-anchor="middle" fill="#fbbf24">TweenLite</text></g>
    </g>
    <text x="0" y="236" font-size="13" font-family="ui-monospace,SFMono-Regular,Menlo,monospace" fill="#6b5e55">登录拦截器 · jQuery · 音乐 API 接口</text>
  </g>

  <g transform="translate(712,60)" font-family="-apple-system,BlinkMacSystemFont,'Segoe UI','PingFang SC',sans-serif">
    <text x="0" y="0" font-size="12" letter-spacing="3" fill="#6b5e55">NOW PLAYING</text>

    <g transform="translate(0,18)">
      <rect width="420" height="232" rx="14" fill="#1c1612" stroke="#2e251f"/>
      <circle cx="44" cy="52" r="24" fill="#fb7185" opacity="0.16"/>
      <circle cx="44" cy="52" r="16" fill="#fb7185"/>
      <path d="M40,46 L40,58 M48,44 L48,60" stroke="#14100e" stroke-width="2.4" stroke-linecap="round"/>
      <text x="80" y="46" font-size="16" fill="#f0ebe7" font-weight="600">示例曲目.mp3</text>
      <text x="80" y="64" font-size="12" fill="#8a7d75" font-family="ui-monospace,monospace">已上传 · 可收藏</text>

      <g transform="translate(28,92)" fill="#fb7185">
        <rect x="0" y="14" width="4" height="20" rx="2" opacity="0.5"/>
        <rect x="10" y="6" width="4" height="36" rx="2" opacity="0.7"/>
        <rect x="20" y="2" width="4" height="44" rx="2"/>
        <rect x="30" y="10" width="4" height="28" rx="2" opacity="0.8"/>
        <rect x="40" y="16" width="4" height="16" rx="2" opacity="0.55"/>
        <rect x="50" y="8" width="4" height="32" rx="2" opacity="0.75"/>
        <rect x="60" y="4" width="4" height="40" rx="2" opacity="0.9"/>
        <rect x="70" y="12" width="4" height="24" rx="2" opacity="0.65"/>
        <rect x="80" y="18" width="4" height="12" rx="2" opacity="0.5"/>
        <rect x="90" y="10" width="4" height="28" rx="2" opacity="0.7" fill="#fbbf24"/>
        <rect x="100" y="6" width="4" height="36" rx="2" opacity="0.8" fill="#fbbf24"/>
        <rect x="110" y="14" width="4" height="20" rx="2" opacity="0.55"/>
        <rect x="120" y="8" width="4" height="32" rx="2" opacity="0.75" fill="#fbbf24"/>
        <rect x="130" y="16" width="4" height="16" rx="2" opacity="0.5"/>
        <rect x="140" y="12" width="4" height="24" rx="2" opacity="0.65"/>
        <rect x="150" y="6" width="4" height="36" rx="2" opacity="0.8"/>
        <rect x="160" y="14" width="4" height="20" rx="2" opacity="0.55"/>
        <rect x="170" y="10" width="4" height="28" rx="2" opacity="0.7"/>
        <rect x="180" y="16" width="4" height="12" rx="2" opacity="0.5"/>
        <rect x="190" y="8" width="4" height="32" rx="2" opacity="0.75"/>
        <rect x="200" y="14" width="4" height="20" rx="2" opacity="0.55"/>
        <rect x="210" y="18" width="4" height="8" rx="2" opacity="0.4"/>
        <rect x="220" y="12" width="4" height="24" rx="2" opacity="0.65"/>
        <rect x="230" y="16" width="4" height="16" rx="2" opacity="0.5"/>
        <rect x="240" y="10" width="4" height="28" rx="2" opacity="0.7"/>
        <rect x="250" y="6" width="4" height="36" rx="2" opacity="0.8"/>
        <rect x="260" y="14" width="4" height="20" rx="2" opacity="0.55"/>
        <rect x="270" y="16" width="4" height="16" rx="2" opacity="0.5"/>
        <rect x="280" y="8" width="4" height="32" rx="2" opacity="0.75"/>
        <rect x="290" y="12" width="4" height="24" rx="2" opacity="0.65"/>
        <rect x="300" y="16" width="4" height="12" rx="2" opacity="0.5"/>
        <rect x="310" y="10" width="4" height="28" rx="2" opacity="0.7"/>
        <rect x="320" y="14" width="4" height="20" rx="2" opacity="0.55"/>
        <rect x="330" y="18" width="4" height="8" rx="2" opacity="0.4"/>
        <rect x="340" y="12" width="4" height="24" rx="2" opacity="0.65"/>
        <rect x="350" y="16" width="4" height="16" rx="2" opacity="0.5"/>
        <rect x="360" y="10" width="4" height="28" rx="2" opacity="0.7"/>
        <rect x="370" y="6" width="4" height="36" rx="2" opacity="0.8"/>
      </g>

      <line x1="28" y1="168" x2="392" y2="168" stroke="#2e251f" stroke-width="2" stroke-linecap="round"/>
      <line x1="28" y1="168" x2="176" y2="168" stroke="#fbbf24" stroke-width="2.4" stroke-linecap="round"/>
      <circle cx="176" cy="168" r="5" fill="#fbbf24"/>
      <text x="28" y="194" font-size="11" fill="#8a7d75" font-family="ui-monospace,monospace">01:12</text>
      <text x="392" y="194" font-size="11" fill="#8a7d75" font-family="ui-monospace,monospace" text-anchor="end">03:48</text>

      <g transform="translate(160,202)" fill="none" stroke="#f0ebe7" stroke-width="1.6">
        <circle cx="0" cy="0" r="4" fill="#f0ebe7"/>
        <path d="M-16,0 L-8,0"/>
        <path d="M8,0 L16,0"/>
      </g>
      <path d="M206,194 L206,210 M200,202 L212,202" stroke="#fb7185" stroke-width="1.6" stroke-linecap="round"/>
      <text x="232" y="206" font-size="12" fill="#fb7185">收藏</text>
    </g>
  </g>

  <text x="56" y="312" font-size="12" font-family="ui-monospace,SFMono-Regular,Menlo,monospace" fill="#6b5e55">author: liem · /login.html → /list.html · Bootstrap + jQuery</text>
</svg>
